<?xml version="1.0" standalone="no"?>
<!DOCTYPE svg PUBLIC "-//W3C//DTD SVG 20010904//EN"
 "http://www.w3.org/TR/2001/REC-SVG-20010904/DTD/svg10.dtd">
<svg version="1.0" xmlns="http://www.w3.org/2000/svg"
 width="700.000000pt" height="700.000000pt" viewBox="0 0 700.000000 700.000000"
 preserveAspectRatio="xMidYMid meet">
<metadata>
Created by potrace 1.11, written by Peter Selinger 2001-2013
</metadata>
<g transform="translate(0.000000,700.000000) scale(0.100000,-0.100000)"
fill="#000000" stroke="none">
<path d="M3146 6253 c-52 -15 -118 -69 -144 -118 -23 -44 -22 -176 2 -240 55
-144 205 -296 371 -374 l68 -32 70 36 c101 52 152 89 227 165 195 199 212 459
34 546 -89 44 -157 33 -267 -41 -37 -25 -70 -45 -72 -45 -3 0 -19 12 -36 28
-17 15 -35 26 -40 25 -5 -2 -9 1 -9 5 0 13 -81 46 -137 56 -10 2 -40 -3 -67
-11z"/>
<path d="M2567 5604 c-1 -1 -27 -4 -57 -8 -105 -12 -136 -18 -221 -42 -365
-101 -674 -355 -851 -699 -56 -110 -99 -244 -134 -418 -9 -45 -12 -316 -3
-352 3 -16 14 -68 24 -115 10 -47 29 -116 42 -155 24 -71 83 -206 93 -215 3
-3 11 -16 18 -30 13 -27 34 -62 42 -70 3 -3 18 -24 33 -46 62 -91 180 -211
292 -295 131 -99 350 -203 475 -225 14 -3 42 -9 63 -15 80 -21 286 -29 422
-16 108 10 213 37 355 90 55 20 168 81 245 130 38 25 72 42 75 38 32 -46 296
-178 430 -215 122 -34 130 -35 220 -43 159 -13 323 -6 429 18 25 6 55 12 66
15 45 9 205 70 270 103 206 104 392 269 513 456 25 39 49 72 54 73 4 2 8 8 8
14 0 5 18 47 40 93 38 78 76 187 87 244 2 13 6 28 8 31 17 27 30 185 29 331
-3 239 -56 428 -181 654 -16 27 -33 56 -40 65 -7 8 -29 39 -51 67 -49 67 -134
156 -196 208 -27 22 -56 48 -65 58 -8 9 -19 17 -24 17 -7 0 -64 37 -77 50 -32
32 -243 125 -352 155 -121 33 -235 48 -363 48 -82 0 -121 -3 -240 -19 -50 -7
-169 -40 -213 -60 -18 -7 -38 -14 -43 -14 -19 0 -184 -86 -255 -133 l-68 -45
-55 38 c-31 20 -60 38 -66 39 -5 2 -17 8 -25 16 -25 21 -169 85 -263 116 -111
36 -264 61 -390 63 -54 1 -99 1 -100 0z m1884 -389 c383 -66 686 -348 785
-731 45 -176 35 -396 -26 -559 -68 -184 -164 -320 -306 -436 -40 -33 -76 -59
-80 -59 -4 0 -15 -6 -23 -14 -16 -14 -143 -81 -149 -77 -1 0 -18 -5 -37 -13
-36 -15 -122 -38 -205 -53 -25 -5 -89 -8 -142 -7 -154 3 -302 41 -438 111 -96
50 -97 52 -64 104 16 24 31 46 34 49 15 15 110 205 115 230 2 11 7 24 10 30
11 18 53 165 59 210 4 25 10 63 14 85 20 114 2 375 -34 505 -41 145 -124 326
-196 426 -32 45 -32 46 -13 61 33 25 178 92 247 113 74 22 101 28 188 36 36 3
66 7 67 8 6 5 120 -6 194 -19z m-1611 0 c100 -19 296 -101 340 -141 13 -13 13
-17 0 -37 -119 -185 -203 -377 -225 -512 -3 -17 -8 -41 -11 -54 -20 -87 -22
-303 -5 -411 25 -151 113 -419 141 -428 6 -2 10 -10 10 -18 0 -8 23 -50 50
-93 28 -43 50 -83 50 -89 0 -18 -195 -109 -281 -131 -96 -26 -193 -37 -289
-35 -76 2 -88 4 -189 25 -232 48 -474 220 -609 433 -31 50 -57 92 -58 95 0 3
-7 22 -15 41 -83 191 -103 427 -53 619 13 50 28 99 33 109 5 9 9 19 8 22 0 3
13 32 30 65 93 187 217 319 395 423 90 53 237 108 312 117 22 3 42 7 44 10 6
6 282 -2 322 -10z m693 -538 c44 -90 74 -178 82 -241 3 -17 7 -42 11 -56 6
-29 7 -211 0 -255 -10 -65 -17 -101 -27 -131 -5 -17 -12 -42 -14 -55 -7 -33
-105 -229 -115 -229 -20 0 -85 127 -126 246 -63 184 -52 480 24 653 9 20 16
38 17 41 2 9 47 94 63 118 20 31 32 19 85 -91z"/>
<path d="M5070 2367 c-328 -26 -551 -238 -596 -567 -29 -207 7 -431 93 -577
45 -78 148 -173 233 -216 122 -60 182 -72 365 -71 192 1 270 18 415 92 l95 48
3 302 c2 238 0 302 -10 303 -16 1 -460 1 -473 0 -6 -1 -10 -34 -10 -76 -1 -69
1 -75 20 -76 11 0 80 -1 154 -2 l134 -2 -1 -165 c0 -91 -1 -175 -1 -186 -2
-43 -131 -84 -281 -88 -293 -9 -467 110 -526 359 -26 115 -23 326 7 437 31
116 117 231 207 277 101 51 295 72 417 44 103 -23 277 -106 300 -143 3 -5 12
-10 18 -10 10 0 15 110 8 186 -1 16 -144 80 -233 104 -100 27 -220 37 -338 27z"/>
<path d="M3379 2351 c-145 -47 -229 -157 -230 -304 -1 -67 17 -131 53 -184 15
-23 28 -45 28 -48 0 -4 -33 -39 -73 -79 -120 -117 -165 -212 -165 -351 0 -137
36 -226 127 -315 95 -92 210 -136 368 -139 148 -3 272 36 396 125 l49 36 67
-69 66 -69 113 0 c62 0 111 3 110 8 -2 4 -59 64 -127 133 l-124 126 30 42 c74
103 140 267 158 390 6 36 4 47 -6 48 -33 3 -152 0 -155 -4 -2 -2 -7 -24 -10
-48 -13 -107 -75 -281 -109 -309 -12 -10 -76 51 -375 360 -217 223 -242 257
-245 335 -3 76 37 134 117 168 84 37 206 23 334 -39 28 -13 53 -24 55 -24 3 0
4 37 4 83 0 81 0 82 -29 95 -116 50 -325 67 -427 33z m197 -897 c131 -135 240
-250 242 -254 5 -12 -83 -70 -142 -94 -40 -15 -74 -20 -156 -20 -93 -1 -111 2
-160 25 -31 14 -72 40 -91 57 -114 100 -131 293 -37 423 38 52 89 109 98 109
4 0 115 -111 246 -246z"/>
<path d="M1408 2343 c-3 -5 -4 -318 -4 -698 l1 -690 83 0 c45 -1 87 2 92 5 6
4 11 226 12 603 l3 597 89 -237 c49 -131 95 -254 102 -273 8 -19 46 -123 87
-230 l74 -195 95 -1 96 0 173 463 c96 255 176 463 179 463 3 0 5 -266 5 -591
0 -388 3 -593 10 -597 5 -4 47 -7 93 -7 l82 0 0 697 0 698 -141 -3 -140 -2
-130 -340 c-71 -187 -129 -343 -129 -348 0 -4 -9 -26 -19 -50 -11 -23 -30 -71
-42 -107 -31 -90 -39 -99 -54 -58 -6 18 -85 230 -175 470 l-164 436 -137 1
c-76 1 -139 -2 -141 -6z"/>
</g>
</svg>
